<mxfile host="app.diagrams.net" agent="Mozilla/5.0 (Windows NT 10.0; Win64; x64) AppleWebKit/537.36 (KHTML, like Gecko) Chrome/133.0.0.0 Safari/537.36 Edg/133.0.0.0" version="26.0.16">
  <diagram name="第 1 页" id="5E2TzcvJCJmvu9izliWf">
    <mxGraphModel dx="1042" dy="573" grid="0" gridSize="10" guides="1" tooltips="1" connect="1" arrows="1" fold="1" page="0" pageScale="1" pageWidth="827" pageHeight="1169" math="0" shadow="0">
      <root>
        <mxCell id="0" />
        <mxCell id="1" parent="0" />
        <mxCell id="nDgG3ALQBsRsX1TV36bU-1" value="客户端" style="rounded=0;whiteSpace=wrap;html=1;" parent="1" vertex="1">
          <mxGeometry x="30" y="98" width="92" height="42" as="geometry" />
        </mxCell>
        <mxCell id="nDgG3ALQBsRsX1TV36bU-4" value="" style="endArrow=none;dashed=1;html=1;dashPattern=1 3;strokeWidth=2;rounded=0;" parent="1" edge="1">
          <mxGeometry width="50" height="50" relative="1" as="geometry">
            <mxPoint x="77" y="533" as="sourcePoint" />
            <mxPoint x="75" y="137" as="targetPoint" />
          </mxGeometry>
        </mxCell>
        <mxCell id="nDgG3ALQBsRsX1TV36bU-3" value="" style="rounded=1;whiteSpace=wrap;html=1;" parent="1" vertex="1">
          <mxGeometry x="69" y="151" width="16" height="352" as="geometry" />
        </mxCell>
        <mxCell id="nDgG3ALQBsRsX1TV36bU-8" value="服务端" style="rounded=0;whiteSpace=wrap;html=1;" parent="1" vertex="1">
          <mxGeometry x="242" y="98" width="92" height="42" as="geometry" />
        </mxCell>
        <mxCell id="nDgG3ALQBsRsX1TV36bU-9" value="数据库" style="rounded=0;whiteSpace=wrap;html=1;" parent="1" vertex="1">
          <mxGeometry x="458" y="96" width="92" height="42" as="geometry" />
        </mxCell>
        <mxCell id="nDgG3ALQBsRsX1TV36bU-11" value="" style="endArrow=none;dashed=1;html=1;dashPattern=1 3;strokeWidth=2;rounded=0;" parent="1" edge="1">
          <mxGeometry width="50" height="50" relative="1" as="geometry">
            <mxPoint x="289" y="536" as="sourcePoint" />
            <mxPoint x="287" y="140" as="targetPoint" />
          </mxGeometry>
        </mxCell>
        <mxCell id="nDgG3ALQBsRsX1TV36bU-10" value="" style="rounded=1;whiteSpace=wrap;html=1;" parent="1" vertex="1">
          <mxGeometry x="281" y="154" width="14" height="352" as="geometry" />
        </mxCell>
        <mxCell id="nDgG3ALQBsRsX1TV36bU-13" value="" style="endArrow=none;dashed=1;html=1;dashPattern=1 3;strokeWidth=2;rounded=0;" parent="1" edge="1">
          <mxGeometry width="50" height="50" relative="1" as="geometry">
            <mxPoint x="507" y="534" as="sourcePoint" />
            <mxPoint x="505" y="138" as="targetPoint" />
          </mxGeometry>
        </mxCell>
        <mxCell id="nDgG3ALQBsRsX1TV36bU-12" value="" style="rounded=1;whiteSpace=wrap;html=1;" parent="1" vertex="1">
          <mxGeometry x="499" y="152" width="14" height="352" as="geometry" />
        </mxCell>
        <mxCell id="nDgG3ALQBsRsX1TV36bU-15" value="" style="endArrow=classic;html=1;rounded=0;exitX=1.013;exitY=0.054;exitDx=0;exitDy=0;exitPerimeter=0;" parent="1" source="nDgG3ALQBsRsX1TV36bU-3" edge="1">
          <mxGeometry width="50" height="50" relative="1" as="geometry">
            <mxPoint x="344" y="344" as="sourcePoint" />
            <mxPoint x="280" y="170" as="targetPoint" />
          </mxGeometry>
        </mxCell>
        <mxCell id="nDgG3ALQBsRsX1TV36bU-16" value="账号登录" style="edgeLabel;html=1;align=center;verticalAlign=middle;resizable=0;points=[];" parent="nDgG3ALQBsRsX1TV36bU-15" vertex="1" connectable="0">
          <mxGeometry x="-0.2074" y="2" relative="1" as="geometry">
            <mxPoint as="offset" />
          </mxGeometry>
        </mxCell>
        <mxCell id="nDgG3ALQBsRsX1TV36bU-17" value="" style="endArrow=classic;html=1;rounded=0;exitX=0.986;exitY=0.077;exitDx=0;exitDy=0;exitPerimeter=0;entryX=0.214;entryY=0.081;entryDx=0;entryDy=0;entryPerimeter=0;" parent="1" source="nDgG3ALQBsRsX1TV36bU-10" target="nDgG3ALQBsRsX1TV36bU-12" edge="1">
          <mxGeometry width="50" height="50" relative="1" as="geometry">
            <mxPoint x="344" y="344" as="sourcePoint" />
            <mxPoint x="394" y="294" as="targetPoint" />
          </mxGeometry>
        </mxCell>
        <mxCell id="nDgG3ALQBsRsX1TV36bU-18" value="数据库认证" style="edgeLabel;html=1;align=center;verticalAlign=middle;resizable=0;points=[];" parent="nDgG3ALQBsRsX1TV36bU-17" vertex="1" connectable="0">
          <mxGeometry x="-0.2221" y="-2" relative="1" as="geometry">
            <mxPoint as="offset" />
          </mxGeometry>
        </mxCell>
        <mxCell id="nDgG3ALQBsRsX1TV36bU-19" value="" style="endArrow=classic;html=1;rounded=0;dashed=1;entryX=0.814;entryY=0.164;entryDx=0;entryDy=0;entryPerimeter=0;exitX=0.214;exitY=0.172;exitDx=0;exitDy=0;exitPerimeter=0;" parent="1" source="nDgG3ALQBsRsX1TV36bU-12" target="nDgG3ALQBsRsX1TV36bU-10" edge="1">
          <mxGeometry width="50" height="50" relative="1" as="geometry">
            <mxPoint x="344" y="344" as="sourcePoint" />
            <mxPoint x="394" y="294" as="targetPoint" />
          </mxGeometry>
        </mxCell>
        <mxCell id="nDgG3ALQBsRsX1TV36bU-20" value="认证成功" style="edgeLabel;html=1;align=center;verticalAlign=middle;resizable=0;points=[];" parent="nDgG3ALQBsRsX1TV36bU-19" vertex="1" connectable="0">
          <mxGeometry x="0.1315" y="4" relative="1" as="geometry">
            <mxPoint as="offset" />
          </mxGeometry>
        </mxCell>
        <mxCell id="nDgG3ALQBsRsX1TV36bU-29" style="edgeStyle=orthogonalEdgeStyle;rounded=0;orthogonalLoop=1;jettySize=auto;html=1;entryX=1.043;entryY=0.386;entryDx=0;entryDy=0;entryPerimeter=0;exitX=0.986;exitY=0.57;exitDx=0;exitDy=0;exitPerimeter=0;" parent="1" source="nDgG3ALQBsRsX1TV36bU-10" target="nDgG3ALQBsRsX1TV36bU-10" edge="1">
          <mxGeometry relative="1" as="geometry">
            <Array as="points">
              <mxPoint x="379" y="355" />
              <mxPoint x="379" y="290" />
            </Array>
          </mxGeometry>
        </mxCell>
        <mxCell id="nDgG3ALQBsRsX1TV36bU-30" value="生成token" style="text;html=1;align=center;verticalAlign=middle;resizable=0;points=[];autosize=1;strokeColor=none;fillColor=none;" parent="1" vertex="1">
          <mxGeometry x="321" y="297" width="71" height="26" as="geometry" />
        </mxCell>
        <mxCell id="nDgG3ALQBsRsX1TV36bU-33" value="" style="endArrow=classic;html=1;rounded=0;entryX=0.763;entryY=0.631;entryDx=0;entryDy=0;entryPerimeter=0;dashed=1;" parent="1" target="nDgG3ALQBsRsX1TV36bU-3" edge="1">
          <mxGeometry width="50" height="50" relative="1" as="geometry">
            <mxPoint x="288" y="371" as="sourcePoint" />
            <mxPoint x="394" y="341" as="targetPoint" />
          </mxGeometry>
        </mxCell>
        <mxCell id="nDgG3ALQBsRsX1TV36bU-34" value="返回登录信息" style="text;html=1;align=center;verticalAlign=middle;resizable=0;points=[];autosize=1;strokeColor=none;fillColor=none;" parent="1" vertex="1">
          <mxGeometry x="87" y="351" width="90" height="26" as="geometry" />
        </mxCell>
        <mxCell id="nDgG3ALQBsRsX1TV36bU-37" style="edgeStyle=orthogonalEdgeStyle;rounded=0;orthogonalLoop=1;jettySize=auto;html=1;exitX=0.969;exitY=0.663;exitDx=0;exitDy=0;exitPerimeter=0;" parent="1" source="nDgG3ALQBsRsX1TV36bU-3" edge="1">
          <mxGeometry relative="1" as="geometry">
            <mxPoint x="88" y="463" as="targetPoint" />
            <Array as="points">
              <mxPoint x="141" y="384" />
              <mxPoint x="141" y="464" />
              <mxPoint x="88" y="464" />
            </Array>
          </mxGeometry>
        </mxCell>
        <mxCell id="nDgG3ALQBsRsX1TV36bU-38" value="保存token" style="text;html=1;align=center;verticalAlign=middle;resizable=0;points=[];autosize=1;strokeColor=none;fillColor=none;" parent="1" vertex="1">
          <mxGeometry x="121" y="400" width="71" height="26" as="geometry" />
        </mxCell>
      </root>
    </mxGraphModel>
  </diagram>
</mxfile>
